MutatorSansLightCondensed.ufo
<glyph name="comma" format="2">
  <advance width="171"/>
  <unicode hex="002C"/>
  <outline>
    <contour>
      <point x="111" y="0" type="line"/>
      <point x="111" y="120" type="line"/>
      <point x="61" y="120" type="line"/>
      <point x="61" y="0" type="line"/>
      <point x="93" y="-8" type="line"/>
      <point x="82" y="12" type="line"/>
      <point x="60" y="-93" type="line"/>
      <point x="72" y="-95" type="line"/>
    </contour>
  </outline>
</glyph>
<glyph name="period" format="2">
  <advance width="170"/>
  <unicode hex="002E"/>
  <outline>
    <contour>
      <point x="60" y="0" type="line"/>
      <point x="110" y="0" type="line"/>
      <point x="110" y="120" type="line"/>
      <point x="60" y="120" type="line"/>
    </contour>
  </outline>
</glyph>
<glyph name="A" format="2">
  <advance width="396"/>
  <unicode hex="0041"/>
  <outline>
    <contour>
      <point x="20" y="0" type="line"/>
      <point x="60" y="0" type="line"/>
      <point x="200" y="700" type="line"/>
      <point x="165" y="700" type="line"/>
    </contour>
    <contour>
      <point x="75" y="164" type="line"/>
      <point x="325" y="164" type="line"/>
      <point x="325" y="200" type="line"/>
      <point x="75" y="200" type="line"/>
    </contour>
    <contour>
      <point x="332" y="0" type="line"/>
      <point x="376" y="0" type="line"/>
      <point x="231" y="700" type="line"/>
      <point x="192" y="700" type="line"/>
    </contour>
    <contour>
      <point x="175" y="661" type="line"/>
      <point x="222" y="661" type="line"/>
      <point x="222" y="700" type="line"/>
      <point x="175" y="700" type="line"/>
    </contour>
  </outline>
</glyph>
<glyph name="B" format="2">
  <advance width="443"/>
  <unicode hex="0042"/>
  <outline>
    <contour>
      <point x="60" y="0" type="line"/>
      <point x="100" y="0" type="line"/>
      <point x="100" y="700" type="line"/>
      <point x="60" y="700" type="line"/>
    </contour>
    <contour>
      <point x="80" y="333" type="line"/>
      <point x="210" y="333" type="line" smooth="yes"/>
      <point x="315" y="333"/>
      <point x="364" y="269"/>
      <point x="364" y="183" type="curve" smooth="yes"/>
      <point x="364.0" y="93.0"/>
      <point x="312" y="36"/>
      <point x="200" y="36" type="curve" smooth="yes"/>
      <point x="80" y="36" type="line"/>
      <point x="80" y="0" type="line"/>
      <point x="190" y="0" type="line" smooth="yes"/>
      <point x="343" y="0"/>
      <point x="403.0" y="79"/>
      <point x="403" y="183" type="curve" smooth="yes"/>
      <point x="403" y="273"/>
      <point x="353" y="351"/>
      <point x="233" y="361" type="curve"/>
      <point x="253" y="350" type="line"/>
      <point x="342" y="366"/>
      <point x="383.0" y="439.0"/>
      <point x="383" y="517" type="curve" smooth="yes"/>
      <point x="383.0" y="618.0"/>
      <point x="341.0" y="700.0"/>
      <point x="180" y="700" type="curve" smooth="yes"/>
      <point x="80" y="700" type="line"/>
      <point x="80" y="664" type="line"/>
      <point x="190" y="664" type="line" smooth="yes"/>
      <point x="310.0" y="664.0"/>
      <point x="344.0" y="603.0"/>
      <point x="344" y="517" type="curve" smooth="yes"/>
      <point x="344.0" y="431.0"/>
      <point x="295.0" y="368.0"/>
      <point x="190" y="368" type="curve" smooth="yes"/>
      <point x="80" y="368" type="line"/>
    </contour>
  </outline>
</glyph>
<glyph name="C" format="2">
  <advance width="499"/>
  <unicode hex="0043"/>
  <outline>
    <contour>
      <point x="410" y="264" type="line"/>
      <point x="397" y="85"/>
      <point x="340" y="26"/>
      <point x="257" y="26" type="curve" smooth="yes"/>
      <point x="246" y="26" type="line" smooth="yes"/>
      <point x="152" y="26"/>
      <point x="92" y="104"/>
      <point x="92" y="352" type="curve" smooth="yes"/>
      <point x="92" y="599"/>
      <point x="152" y="674"/>
      <point x="246" y="674" type="curve" smooth="yes"/>
      <point x="257" y="674" type="line" smooth="yes"/>
      <point x="339" y="674"/>
      <point x="396" y="618"/>
      <point x="410" y="442" type="curve"/>
      <point x="449" y="447" type="line"/>
      <point x="432" y="638"/>
      <point x="361" y="710"/>
      <point x="257" y="710" type="curve" smooth="yes"/>
      <point x="246" y="710" type="line" smooth="yes"/>
      <point x="125" y="710"/>
      <point x="50" y="615"/>
      <point x="50" y="352" type="curve" smooth="yes"/>
      <point x="50" y="88"/>
      <point x="125" y="-10"/>
      <point x="246" y="-10" type="curve" smooth="yes"/>
      <point x="257" y="-10" type="line" smooth="yes"/>
      <point x="362" y="-10"/>
      <point x="433" y="64"/>
      <point x="449" y="258" type="curve"/>
    </contour>
  </outline>
</glyph>
<glyph name="D" format="2">
  <advance width="493"/>
  <unicode hex="0044"/>
  <outline>
    <contour>
      <point x="60" y="0" type="line"/>
      <point x="100" y="0" type="line"/>
      <point x="100" y="700" type="line"/>
      <point x="60" y="700" type="line"/>
    </contour>
    <contour>
      <point x="86" y="664" type="line"/>
      <point x="207" y="664" type="line" smooth="yes"/>
      <point x="320.0" y="664.0"/>
      <point x="401" y="599"/>
      <point x="401" y="352" type="curve" smooth="yes"/>
      <point x="401" y="104"/>
      <point x="320.0" y="36.0"/>
      <point x="207" y="36" type="curve" smooth="yes"/>
      <point x="86" y="36" type="line"/>
      <point x="86" y="0" type="line"/>
      <point x="207" y="0" type="line" smooth="yes"/>
      <point x="345.0" y="0.0"/>
      <point x="443" y="88"/>
      <point x="443" y="352" type="curve" smooth="yes"/>
      <point x="443" y="615"/>
      <point x="345.0" y="700.0"/>
      <point x="207" y="700" type="curve" smooth="yes"/>
      <point x="86" y="700" type="line"/>
    </contour>
  </outline>
</glyph>
<glyph name="E" format="2">
  <advance width="380"/>
  <unicode hex="0045"/>
  <anchor x="207" y="746" name="top"/>
  <outline>
    <contour>
      <point x="60" y="0" type="line"/>
      <point x="100" y="0" type="line"/>
      <point x="100" y="700" type="line"/>
      <point x="60" y="700" type="line"/>
    </contour>
    <contour>
      <point x="80" y="664" type="line"/>
      <point x="340" y="664" type="line"/>
      <point x="340" y="700" type="line"/>
      <point x="80" y="700" type="line"/>
    </contour>
    <contour>
      <point x="80" y="0" type="line"/>
      <point x="340" y="0" type="line"/>
      <point x="340" y="36" type="line"/>
      <point x="80" y="36" type="line"/>
    </contour>
    <contour>
      <point x="80" y="334" type="line"/>
      <point x="320" y="334" type="line"/>
      <point x="320" y="370" type="line"/>
      <point x="80" y="370" type="line"/>
    </contour>
  </outline>
</glyph>
<glyph name="F" format="2">
  <advance width="380"/>
  <unicode hex="0046"/>
  <outline>
    <contour>
      <point x="60" y="0" type="line"/>
      <point x="100" y="0" type="line"/>
      <point x="100" y="700" type="line"/>
      <point x="60" y="700" type="line"/>
    </contour>
    <contour>
      <point x="80" y="664" type="line"/>
      <point x="340" y="664" type="line"/>
      <point x="340" y="700" type="line"/>
      <point x="80" y="700" type="line"/>
    </contour>
    <contour>
      <point x="80" y="314" type="line"/>
      <point x="320" y="314" type="line"/>
      <point x="320" y="350" type="line"/>
      <point x="80" y="350" type="line"/>
    </contour>
  </outline>
</glyph>
<glyph name="G" format="2">
  <advance width="509"/>
  <unicode hex="0047"/>
  <outline>
    <contour>
      <point x="250" y="300" type="line"/>
      <point x="409" y="300" type="line"/>
      <point x="409" y="216" type="line"/>
      <point x="418" y="0" type="line"/>
      <point x="446" y="0" type="line"/>
      <point x="446" y="335" type="line"/>
      <point x="250" y="335" type="line"/>
    </contour>
    <contour>
      <point x="410" y="284" type="line"/>
      <point x="397" y="85"/>
      <point x="340" y="26"/>
      <point x="257" y="26" type="curve" smooth="yes"/>
      <point x="246" y="26" type="line" smooth="yes"/>
      <point x="152" y="26"/>
      <point x="90" y="104"/>
      <point x="90" y="352" type="curve" smooth="yes"/>
      <point x="90" y="599"/>
      <point x="161" y="674"/>
      <point x="255" y="674" type="curve" smooth="yes"/>
      <point x="266" y="674" type="line" smooth="yes"/>
      <point x="348" y="674"/>
      <point x="396" y="618"/>
      <point x="410" y="442" type="curve"/>
      <point x="449" y="447" type="line"/>
      <point x="432" y="638"/>
      <point x="370" y="710"/>
      <point x="266" y="710" type="curve" smooth="yes"/>
      <point x="255" y="710" type="line" smooth="yes"/>
      <point x="134" y="710"/>
      <point x="50" y="615"/>
      <point x="50" y="352" type="curve" smooth="yes"/>
      <point x="50" y="88"/>
      <point x="125" y="-10"/>
      <point x="246" y="-10" type="curve" smooth="yes"/>
      <point x="257" y="-10" type="line" smooth="yes"/>
      <point x="362" y="-10"/>
      <point x="420" y="64"/>
      <point x="426" y="278" type="curve"/>
    </contour>
  </outline>
</glyph>
<glyph name="H" format="2">
  <advance width="460"/>
  <unicode hex="0048"/>
  <outline>
    <contour>
      <point x="60" y="0" type="line"/>
      <point x="100" y="0" type="line"/>
      <point x="100" y="700" type="line"/>
      <point x="60" y="700" type="line"/>
    </contour>
    <contour>
      <point x="80" y="334" type="line"/>
      <point x="380" y="334" type="line"/>
      <point x="380" y="370" type="line"/>
      <point x="80" y="370" type="line"/>
    </contour>
    <contour>
      <point x="360" y="0" type="line"/>
      <point x="400" y="0" type="line"/>
      <point x="400" y="700" type="line"/>
      <point x="360" y="700" type="line"/>
    </contour>
  </outline>
</glyph>
<glyph name="I" format="2">
  <advance width="320"/>
  <unicode hex="0049"/>
  <outline>
    <contour>
      <point x="140" y="0" type="line"/>
      <point x="180" y="0" type="line"/>
      <point x="180" y="700" type="line"/>
      <point x="140" y="700" type="line"/>
    </contour>
    <contour>
      <point x="60" y="664" type="line"/>
      <point x="260" y="664" type="line"/>
      <point x="260" y="700" type="line"/>
      <point x="60" y="700" type="line"/>
    </contour>
    <contour>
      <point x="60" y="0" type="line"/>
      <point x="260" y="0" type="line"/>
      <point x="260" y="36" type="line"/>
      <point x="60" y="36" type="line"/>
    </contour>
  </outline>
</glyph>
<glyph name="J" format="2">
  <advance width="463"/>
  <unicode hex="004A"/>
  <outline>
    <contour>
      <point x="232" y="-10" type="curve" smooth="yes"/>
      <point x="338" y="-10"/>
      <point x="403" y="38"/>
      <point x="403" y="182" type="curve" smooth="yes"/>
      <point x="403" y="700" type="line"/>
      <point x="363" y="700" type="line"/>
      <point x="363" y="182" type="line" smooth="yes"/>
      <point x="363" y="60"/>
      <point x="313" y="26"/>
      <point x="232" y="26" type="curve" smooth="yes"/>
      <point x="151" y="26"/>
      <point x="100" y="60"/>
      <point x="100" y="182" type="curve" smooth="yes"/>
      <point x="100" y="280" type="line"/>
      <point x="60" y="280" type="line"/>
      <point x="60" y="182" type="line" smooth="yes"/>
      <point x="60" y="38"/>
      <point x="124" y="-10"/>
    </contour>
  </outline>
</glyph>
<glyph name="K" format="2">
  <advance width="427"/>
  <unicode hex="004B"/>
  <outline>
    <contour>
      <point x="60" y="0" type="line"/>
      <point x="100" y="0" type="line"/>
      <point x="100" y="700" type="line"/>
      <point x="60" y="700" type="line"/>
    </contour>
    <contour>
      <point x="74" y="334" type="line"/>
      <point x="145" y="334" type="line"/>
      <point x="358" y="0" type="line"/>
      <point x="407" y="0" type="line"/>
      <point x="160" y="370" type="line"/>
      <point x="154" y="370" type="line"/>
      <point x="74" y="370" type="line"/>
    </contour>
    <contour>
      <point x="124" y="353" type="line"/>
      <point x="151" y="338" type="line"/>
      <point x="399" y="700" type="line"/>
      <point x="353" y="700" type="line"/>
    </contour>
  </outline>
</glyph>
<glyph name="L" format="2">
  <advance width="370"/>
  <unicode hex="004C"/>
  <outline>
    <contour>
      <point x="60" y="0" type="line"/>
      <point x="100" y="0" type="line"/>
      <point x="100" y="700" type="line"/>
      <point x="60" y="700" type="line"/>
    </contour>
    <contour>
      <point x="80" y="0" type="line"/>
      <point x="340" y="0" type="line"/>
      <point x="340" y="36" type="line"/>
      <point x="80" y="36" type="line"/>
    </contour>
  </outline>
</glyph>
<glyph name="M" format="2">
  <advance width="530"/>
  <unicode hex="004D"/>
  <outline>
    <contour>
      <point x="60" y="0" type="line"/>
      <point x="100" y="0" type="line"/>
      <point x="100" y="700" type="line"/>
      <point x="60" y="700" type="line"/>
    </contour>
    <contour>
      <point x="470" y="0" type="line"/>
      <point x="470" y="700" type="line"/>
      <point x="430" y="700" type="line"/>
      <point x="430" y="0" type="line"/>
    </contour>
    <contour>
      <point x="453" y="658" type="line"/>
      <point x="430" y="700" type="line"/>
      <point x="260" y="342" type="line"/>
      <point x="277" y="342" type="line"/>
      <point x="100" y="700" type="line"/>
      <point x="78" y="651" type="line"/>
      <point x="253" y="299" type="line"/>
      <point x="278" y="299" type="line"/>
    </contour>
  </outline>
</glyph>
<glyph name="N" format="2">
  <advance width="460"/>
  <unicode hex="004E"/>
  <outline>
    <contour>
      <point x="60" y="0" type="line"/>
      <point x="95" y="0" type="line"/>
      <point x="95" y="700" type="line"/>
      <point x="60" y="700" type="line"/>
    </contour>
    <contour>
      <point x="76" y="646" type="line"/>
      <point x="365" y="0" type="line"/>
      <point x="384" y="54" type="line"/>
      <point x="95" y="700" type="line"/>
    </contour>
    <contour>
      <point x="365" y="0" type="line"/>
      <point x="400" y="0" type="line"/>
      <point x="400" y="700" type="line"/>
      <point x="365" y="700" type="line"/>
    </contour>
  </outline>
</glyph>
<glyph name="O" format="2">
  <advance width="503"/>
  <unicode hex="004F"/>
  <outline>
    <contour>
      <point x="246" y="-10" type="curve" smooth="yes"/>
      <point x="257" y="-10" type="line" smooth="yes"/>
      <point x="377" y="-10"/>
      <point x="453" y="88"/>
      <point x="453" y="352" type="curve" smooth="yes"/>
      <point x="453" y="615"/>
      <point x="377" y="710"/>
      <point x="257" y="710" type="curve" smooth="yes"/>
      <point x="246" y="710" type="line" smooth="yes"/>
      <point x="125" y="710"/>
      <point x="50" y="615"/>
      <point x="50" y="352" type="curve" smooth="yes"/>
      <point x="50" y="88"/>
      <point x="125" y="-10"/>
    </contour>
    <contour>
      <point x="246" y="26" type="line" smooth="yes"/>
      <point x="152" y="26"/>
      <point x="92" y="104"/>
      <point x="92" y="352" type="curve" smooth="yes"/>
      <point x="92" y="599"/>
      <point x="152" y="674"/>
      <point x="246" y="674" type="curve" smooth="yes"/>
      <point x="257" y="674" type="line" smooth="yes"/>
      <point x="352" y="674"/>
      <point x="411" y="599"/>
      <point x="411" y="352" type="curve" smooth="yes"/>
      <point x="411" y="104"/>
      <point x="352" y="26"/>
      <point x="257" y="26" type="curve" smooth="yes"/>
    </contour>
  </outline>
</glyph>
<glyph name="P" format="2">
  <advance width="443"/>
  <unicode hex="0050"/>
  <outline>
    <contour>
      <point x="60" y="0" type="line"/>
      <point x="100" y="0" type="line"/>
      <point x="100" y="700" type="line"/>
      <point x="60" y="700" type="line"/>
    </contour>
    <contour>
      <point x="80" y="660" type="line"/>
      <point x="180" y="660" type="line" smooth="yes"/>
      <point x="299.0" y="660.0"/>
      <point x="354" y="565"/>
      <point x="354" y="432" type="curve" smooth="yes"/>
      <point x="354" y="299"/>
      <point x="299.0" y="205.0"/>
      <point x="180" y="205" type="curve" smooth="yes"/>
      <point x="80" y="205" type="line"/>
      <point x="80" y="165" type="line"/>
      <point x="170" y="165" type="line" smooth="yes"/>
      <point x="330.0" y="165.0"/>
      <point x="393" y="286"/>
      <point x="393" y="432" type="curve" smooth="yes"/>
      <point x="393" y="580"/>
      <point x="330.0" y="700.0"/>
      <point x="170" y="700" type="curve" smooth="yes"/>
      <point x="80" y="700" type="line"/>
    </contour>
  </outline>
</glyph>
<glyph name="Q" format="2">
  <advance width="503"/>
  <unicode hex="0051"/>
  <outline>
    <contour>
      <point x="330" y="-130" type="line"/>
      <point x="374" y="-130" type="line"/>
      <point x="275" y="13" type="line"/>
      <point x="243" y="-5" type="line"/>
    </contour>
    <component base="O"/>
  </outline>
</glyph>
<glyph name="R" format="2">
  <advance width="454"/>
  <unicode hex="0052"/>
  <outline>
    <contour>
      <point x="350" y="0" type="line"/>
      <point x="394" y="0" type="line"/>
      <point x="300" y="132" type="line" smooth="yes"/>
      <point x="267" y="179"/>
      <point x="254" y="195"/>
      <point x="232" y="195" type="curve"/>
      <point x="213" y="195" type="line"/>
    </contour>
    <contour>
      <point x="60" y="0" type="line"/>
      <point x="100" y="0" type="line"/>
      <point x="100" y="700" type="line"/>
      <point x="60" y="700" type="line"/>
    </contour>
    <contour>
      <point x="80" y="660" type="line"/>
      <point x="180" y="660" type="line" smooth="yes"/>
      <point x="299.0" y="660.0"/>
      <point x="354" y="565"/>
      <point x="354" y="432" type="curve" smooth="yes"/>
      <point x="354" y="299"/>
      <point x="299.0" y="205.0"/>
      <point x="180" y="205" type="curve" smooth="yes"/>
      <point x="80" y="205" type="line"/>
      <point x="80" y="165" type="line"/>
      <point x="170" y="165" type="line" smooth="yes"/>
      <point x="330.0" y="165.0"/>
      <point x="393" y="286"/>
      <point x="393" y="432" type="curve" smooth="yes"/>
      <point x="393" y="580"/>
      <point x="330.0" y="700.0"/>
      <point x="170" y="700" type="curve" smooth="yes"/>
      <point x="80" y="700" type="line"/>
    </contour>
  </outline>
</glyph>
<glyph name="S" format="2">
  <advance width="393"/>
  <unicode hex="0053"/>
  <outline>
    <contour>
      <point x="349" y="157" type="curve" smooth="yes"/>
      <point x="348" y="238"/>
      <point x="299" y="293"/>
      <point x="217" y="358" type="curve" smooth="yes"/>
      <point x="167" y="398" type="line" smooth="yes"/>
      <point x="105" y="447"/>
      <point x="84" y="494"/>
      <point x="84" y="557" type="curve" smooth="yes"/>
      <point x="84.0" y="619.0"/>
      <point x="128" y="673"/>
      <point x="211" y="673" type="curve" smooth="yes"/>
      <point x="219" y="673" type="line" smooth="yes"/>
      <point x="268" y="673"/>
      <point x="308" y="664"/>
      <point x="348" y="640" type="curve"/>
      <point x="365" y="677" type="line"/>
      <point x="328" y="696"/>
      <point x="291" y="711"/>
      <point x="229" y="711" type="curve" smooth="yes"/>
      <point x="222" y="711" type="line" smooth="yes"/>
      <point x="104" y="711"/>
      <point x="45" y="639"/>
      <point x="46" y="544" type="curve" smooth="yes"/>
      <point x="47" y="463"/>
      <point x="90" y="406"/>
      <point x="172" y="341" type="curve" smooth="yes"/>
      <point x="222" y="301" type="line" smooth="yes"/>
      <point x="293" y="244"/>
      <point x="311" y="207"/>
      <point x="311" y="144" type="curve" smooth="yes"/>
      <point x="311.0" y="82.0"/>
      <point x="267" y="28"/>
      <point x="184" y="28" type="curve" smooth="yes"/>
      <point x="176" y="28" type="line" smooth="yes"/>
      <point x="123.2015503875969" y="28"/>
      <point x="80.35328275700569" y="37.988030345796595"/>
      <point x="37" y="64" type="curve"/>
      <point x="20" y="27" type="line"/>
      <point x="59.91437545377295" y="6.5034288210355164"/>
      <point x="99.44117647058823" y="-10"/>
      <point x="166" y="-10" type="curve" smooth="yes"/>
      <point x="173" y="-10" type="line" smooth="yes"/>
      <point x="291" y="-10"/>
      <point x="350" y="62"/>
    </contour>
  </outline>
</glyph>
<glyph name="T" format="2">
  <advance width="440"/>
  <unicode hex="0054"/>
  <outline>
    <contour>
      <point x="200" y="0" type="line"/>
      <point x="240" y="0" type="line"/>
      <point x="240" y="700" type="line"/>
      <point x="200" y="700" type="line"/>
    </contour>
    <contour>
      <point x="30" y="664" type="line"/>
      <point x="410" y="664" type="line"/>
      <point x="410" y="700" type="line"/>
      <point x="30" y="700" type="line"/>
    </contour>
  </outline>
</glyph>
<glyph name="V" format="2">
  <advance width="400"/>
  <unicode hex="0056"/>
  <outline>
    <contour>
      <point x="378" y="700" type="line"/>
      <point x="337" y="700" type="line"/>
      <point x="207" y="0" type="line"/>
      <point x="243" y="0" type="line"/>
    </contour>
    <contour>
      <point x="65" y="700" type="line"/>
      <point x="20" y="700" type="line"/>
      <point x="155" y="0" type="line"/>
      <point x="195" y="0" type="line"/>
    </contour>
    <contour>
      <point x="235" y="39" type="line"/>
      <point x="165" y="39" type="line"/>
      <point x="165" y="0" type="line"/>
      <point x="235" y="0" type="line"/>
    </contour>
  </outline>
</glyph>
<glyph name="W" format="2">
  <advance width="521"/>
  <unicode hex="0057"/>
  <outline>
    <contour>
      <point x="500" y="700" type="line"/>
      <point x="458" y="700" type="line"/>
      <point x="371" y="62" type="line"/>
      <point x="377" y="62" type="line"/>
      <point x="283" y="700" type="line"/>
      <point x="245" y="700" type="line"/>
      <point x="150" y="62" type="line"/>
      <point x="158" y="62" type="line"/>
      <point x="65" y="700" type="line"/>
      <point x="22" y="700" type="line"/>
      <point x="129" y="0" type="line"/>
      <point x="174" y="0" type="line"/>
      <point x="263" y="639" type="line"/>
      <point x="253" y="639" type="line"/>
      <point x="348" y="0" type="line"/>
      <point x="393" y="0" type="line"/>
    </contour>
  </outline>
</glyph>
<glyph name="X" format="2">
  <advance width="400"/>
  <unicode hex="0058"/>
  <outline>
    <contour>
      <point x="337" y="0" type="line"/>
      <point x="382" y="0" type="line"/>
      <point x="213" y="364" type="line"/>
      <point x="72" y="700" type="line"/>
      <point x="27" y="700" type="line"/>
      <point x="187" y="337" type="line"/>
    </contour>
    <contour>
      <point x="20" y="0" type="line"/>
      <point x="60" y="0" type="line"/>
      <point x="202" y="332" type="line"/>
      <point x="215" y="336" type="line"/>
      <point x="370" y="700" type="line"/>
      <point x="330" y="700" type="line"/>
      <point x="200" y="363" type="line"/>
      <point x="184" y="357" type="line"/>
    </contour>
  </outline>
</glyph>
<glyph name="Z" format="2">
  <advance width="440"/>
  <unicode hex="005A"/>
  <outline>
    <contour>
      <point x="60" y="36" type="line"/>
      <point x="95" y="26" type="line"/>
      <point x="380" y="664" type="line"/>
      <point x="345" y="674" type="line"/>
    </contour>
    <contour>
      <point x="60" y="664" type="line"/>
      <point x="380" y="664" type="line"/>
      <point x="380" y="700" type="line"/>
      <point x="60" y="700" type="line"/>
    </contour>
    <contour>
      <point x="60" y="0" type="line"/>
      <point x="380" y="0" type="line"/>
      <point x="380" y="36" type="line"/>
      <point x="60" y="36" type="line"/>
    </contour>
  </outline>
</glyph>
<glyph name="arrowleft" format="2">
  <advance width="569"/>
  <unicode hex="2190"/>
  <guideline x="26" y="356" angle="0" identifier="BBpvSTOdm4"/>
  <outline>
    <contour>
      <point x="136" y="371" type="line"/>
      <point x="136" y="342" type="line"/>
      <point x="559" y="336" type="line"/>
      <point x="559" y="377" type="line"/>
    </contour>
    <contour>
      <point x="195" y="408" type="line"/>
      <point x="5" y="356" type="line"/>
      <point x="194" y="306" type="line"/>
    </contour>
  </outline>
</glyph>
<glyph name="arrowup" format="2">
  <advance width="302"/>
  <unicode hex="2191"/>
  <outline>
    <contour>
      <point x="165" y="409" type="line"/>
      <point x="136" y="409" type="line"/>
      <point x="130" y="140" type="line"/>
      <point x="171" y="140" type="line"/>
    </contour>
    <contour>
      <point x="202" y="350" type="line"/>
      <point x="150" y="540" type="line"/>
      <point x="100" y="351" type="line"/>
    </contour>
  </outline>
</glyph>
<glyph name="arrowright" format="2">
  <advance width="444"/>
  <unicode hex="2192"/>
  <outline>
    <contour>
      <point x="308" y="345" type="line"/>
      <point x="308" y="374" type="line"/>
      <point x="10" y="380" type="line"/>
      <point x="10" y="339" type="line"/>
    </contour>
    <contour>
      <point x="249" y="308" type="line"/>
      <point x="439" y="360" type="line"/>
      <point x="250" y="410" type="line"/>
    </contour>
  </outline>
</glyph>
<glyph name="arrowdown" format="2">
  <advance width="302"/>
  <unicode hex="2193"/>
  <outline>
    <contour>
      <point x="137" y="271" type="line"/>
      <point x="166" y="271" type="line"/>
      <point x="172" y="540" type="line"/>
      <point x="131" y="540" type="line"/>
    </contour>
    <contour>
      <point x="100" y="330" type="line"/>
      <point x="152" y="140" type="line"/>
      <point x="202" y="329" type="line"/>
    </contour>
  </outline>
</glyph>
<glyph name="J.narrow" format="2">
  <advance width="383"/>
  <outline>
    <contour>
      <point x="122" y="-10" type="curve" smooth="yes"/>
      <point x="247" y="-10"/>
      <point x="323" y="48"/>
      <point x="323" y="222" type="curve" smooth="yes"/>
      <point x="323" y="700" type="line"/>
      <point x="283" y="700" type="line"/>
      <point x="283" y="222" type="line" smooth="yes"/>
      <point x="283" y="68"/>
      <point x="222" y="26"/>
      <point x="122" y="26" type="curve" smooth="yes"/>
      <point x="104" y="26"/>
      <point x="87" y="28"/>
      <point x="72" y="32" type="curve"/>
      <point x="60" y="-3" type="line"/>
      <point x="79" y="-8"/>
      <point x="100" y="-10"/>
    </contour>
  </outline>
</glyph>
<glyph name="S.closed" format="2">
  <advance width="398"/>
  <outline>
    <contour>
      <point x="358" y="157" type="curve" smooth="yes"/>
      <point x="357" y="238"/>
      <point x="311" y="300"/>
      <point x="226" y="358" type="curve" smooth="yes"/>
      <point x="168" y="398" type="line" smooth="yes"/>
      <point x="102" y="443"/>
      <point x="85" y="494"/>
      <point x="85" y="557" type="curve" smooth="yes"/>
      <point x="85" y="619"/>
      <point x="117" y="673"/>
      <point x="196" y="673" type="curve" smooth="yes"/>
      <point x="201" y="673" type="line" smooth="yes"/>
      <point x="297" y="673"/>
      <point x="316" y="614"/>
      <point x="316" y="479" type="curve"/>
      <point x="355" y="479" type="line"/>
      <point x="355" y="653"/>
      <point x="316" y="711"/>
      <point x="202" y="711" type="curve" smooth="yes"/>
      <point x="195" y="711" type="line" smooth="yes"/>
      <point x="90" y="711"/>
      <point x="46" y="639"/>
      <point x="47" y="544" type="curve" smooth="yes"/>
      <point x="48" y="463"/>
      <point x="88" y="399"/>
      <point x="173" y="341" type="curve" smooth="yes"/>
      <point x="231" y="301" type="line" smooth="yes"/>
      <point x="305" y="250"/>
      <point x="320" y="207"/>
      <point x="320" y="144" type="curve" smooth="yes"/>
      <point x="320" y="82"/>
      <point x="283" y="28"/>
      <point x="212" y="28" type="curve" smooth="yes"/>
      <point x="204" y="28" type="line" smooth="yes"/>
      <point x="100" y="28"/>
      <point x="80" y="94"/>
      <point x="80" y="222" type="curve"/>
      <point x="40" y="222" type="line"/>
      <point x="40" y="36"/>
      <point x="102" y="-10"/>
      <point x="194" y="-10" type="curve" smooth="yes"/>
      <point x="201" y="-10" type="line" smooth="yes"/>
      <point x="306" y="-10"/>
      <point x="359" y="62"/>
    </contour>
  </outline>
</glyph>
